<?xml version="1.0" encoding="UTF-8" standalone="no"?>
<!-- Uploaded to: SVG Repo, www.svgrepo.com, Generator: SVG Repo Mixer Tools -->

<svg
   fill="#000000"
   width="800px"
   height="800px"
   viewBox="0 0 56 56"
   version="1.1"
   id="svg1"
   sodipodi:docname="music-note-list.svg"
   xml:space="preserve"
   inkscape:version="1.3.2 (091e20e, 2023-11-25, custom)"
   inkscape:export-filename="music-note-list.png"
   inkscape:export-xdpi="415.40485"
   inkscape:export-ydpi="415.40485"
   xmlns:inkscape="http://www.inkscape.org/namespaces/inkscape"
   xmlns:sodipodi="http://sodipodi.sourceforge.net/DTD/sodipodi-0.dtd"
   xmlns="http://www.w3.org/2000/svg"
   xmlns:svg="http://www.w3.org/2000/svg"><defs
     id="defs1"><inkscape:path-effect
   effect="fillet_chamfer"
   id="path-effect19"
   is_visible="true"
   lpeversion="1"
   nodesatellites_param="F,0,0,1,0,15.01835,0,1 @ F,0,0,1,0,0,0,1 @ F,0,0,1,0,16.899254,0,1 @ F,0,0,1,0,0,0,1"
   radius="0"
   unit="px"
   method="auto"
   mode="F"
   chamfer_steps="1"
   flexible="false"
   use_knot_distance="true"
   apply_no_radius="true"
   apply_with_radius="true"
   only_selected="false"
   hide_knots="false" />
	
	
	
	
	
	
	
	
	
	
	
	
	
</defs><sodipodi:namedview
     id="namedview1"
     pagecolor="#505050"
     bordercolor="#ffffff"
     borderopacity="1"
     inkscape:showpageshadow="0"
     inkscape:pageopacity="0"
     inkscape:pagecheckerboard="1"
     inkscape:deskcolor="#505050"
     inkscape:zoom="0.70710678"
     inkscape:cx="299.10617"
     inkscape:cy="365.57421"
     inkscape:window-width="1920"
     inkscape:window-height="991"
     inkscape:window-x="-9"
     inkscape:window-y="-9"
     inkscape:window-maximized="1"
     inkscape:current-layer="svg1" /><path
     style="fill:#e9afaf;fill-opacity:1;stroke-width:0.0644327"
     id="rect9"
     width="56.138294"
     height="55.960201"
     x="-0.13999973"
     y="-8.8375351e-08"
     inkscape:path-effect="#path-effect19"
     sodipodi:type="rect"
     d="m 14.87835,-8.8375351e-8 41.119944,0 V 39.060947 A 16.899254,16.899254 135 0 1 39.09904,55.960201 l -39.23903973,0 V 15.01835 A 15.01835,15.01835 135 0 1 14.87835,-8.8375351e-8 Z" /><g
     inkscape:groupmode="layer"
     id="layer1"
     inkscape:label="Layer 1" /><path
     d="m 101.96304,13.389969 c 0,0.493635 0.39998,0.893617 0.89362,0.893617 0.49363,0 0.89361,-0.399982 0.89361,-0.893617 0,-2.926536 -1.99074,-3.142434 -3.1802,-3.271353 -1.186129,-0.1286807 -1.585754,-0.1719318 -1.585754,-1.4946042 0,-0.493634 -0.399983,-0.893617 -0.893617,-0.893617 -0.493634,0 -0.893617,0.399983 -0.893617,0.893617 V 18.18488 c -0.447166,-0.208391 -0.953192,-0.326825 -1.489362,-0.326825 -1.806655,0 -3.276596,1.336255 -3.276596,2.978723 0,1.642468 1.469941,2.978724 3.276596,2.978724 1.806655,0 3.276596,-1.336256 3.276596,-2.978724 v -9.210332 c 0.483506,0.170264 0.985481,0.224715 1.392974,0.268919 1.18612,0.128681 1.58575,0.171932 1.58575,1.494604 z m -6.25532,8.638299 c -0.821294,0 -1.489362,-0.534503 -1.489362,-1.19149 0,-0.656987 0.668068,-1.191489 1.489362,-1.191489 0.821294,0 1.489362,0.534502 1.489362,1.191489 0,0.656987 -0.668068,1.19149 -1.489362,1.19149 z"
     id="path1-4"
     style="fill:#000000;stroke-width:0.119149" /><path
     d="m 93.324741,16.666565 h 1.19149 c 0.493634,0 0.893617,-0.399983 0.893617,-0.893617 0,-0.493634 -0.399983,-0.893617 -0.893617,-0.893617 h -1.19149 c -0.493634,0 -0.893617,0.399983 -0.893617,0.893617 0,0.493634 0.399983,0.893617 0.893617,0.893617 z"
     id="path2-4"
     style="fill:#000000;stroke-width:0.119149" /><path
     d="m 120.13325,14.879331 h -18.46808 c -0.49364,0 -0.89362,0.399983 -0.89362,0.893617 0,0.493634 0.39998,0.893617 0.89362,0.893617 h 18.46808 c 0.49364,0 0.89362,-0.399983 0.89362,-0.893617 0,-0.493634 -0.39998,-0.893617 -0.89362,-0.893617 z"
     id="path3-0"
     style="fill:#000000;stroke-width:0.119149" /><path
     d="m 120.13325,11.304863 h -13.88442 c -0.49364,0 -0.89362,0.399983 -0.89362,0.893617 0,0.493634 0.39998,0.893617 0.89362,0.893617 h 13.88442 c 0.49364,0 0.89362,-0.399983 0.89362,-0.893617 0,-0.493634 -0.39998,-0.893617 -0.89362,-0.893617 z"
     id="path4-0"
     style="fill:#000000;stroke-width:0.119149" /><path
     d="m 120.13325,20.241033 c 0.49364,0 0.89362,-0.399982 0.89362,-0.893617 0,-0.493634 -0.39998,-0.893617 -0.89362,-0.893617 h -18.46808 c -0.49364,0 -0.89362,0.399983 -0.89362,0.893617 0,0.493635 0.39998,0.893617 0.89362,0.893617 z"
     id="path5-2"
     style="fill:#000000;stroke-width:0.119149" /><path
     d="m 93.324741,13.092097 h 1.19149 c 0.493634,0 0.893617,-0.399983 0.893617,-0.893617 0,-0.493634 -0.399983,-0.893617 -0.893617,-0.893617 h -1.19149 c -0.493634,0 -0.893617,0.399983 -0.893617,0.893617 0,0.493634 0.399983,0.893617 0.893617,0.893617 z"
     id="path6"
     style="fill:#000000;stroke-width:0.119149" /><path
     d="m 127.98719,25.852829 c 0.013,-0.01668 0.026,-0.03348 0.0378,-0.05111 0.004,-0.0054 0.007,-0.01108 0.01,-0.01644 0.0123,-0.01918 0.0243,-0.0386 0.0352,-0.05874 0.002,-0.0037 0.003,-0.0075 0.005,-0.01108 0.0116,-0.02228 0.0224,-0.0448 0.0322,-0.06803 9.6e-4,-0.0023 0.002,-0.0046 0.003,-0.0069 0.01,-0.02466 0.0191,-0.04957 0.0269,-0.07518 8.4e-4,-0.0026 0.001,-0.0054 0.002,-0.008 0.007,-0.02502 0.0141,-0.0504 0.0192,-0.07649 0.001,-0.0071 0.002,-0.01454 0.003,-0.0218 0.004,-0.02145 0.007,-0.04289 0.01,-0.06482 0.003,-0.02955 0.005,-0.05934 0.005,-0.08924 v -42.893738 c 0,-0.493634 -0.39999,-0.893617 -0.89362,-0.893617 H 86.175805 c -0.493634,0 -0.893617,0.399983 -0.893617,0.893617 v 54.212768 c 0,0.493634 0.399983,0.893617 0.893617,0.893617 h 29.787235 c 0.0299,0 0.0597,-0.0015 0.0892,-0.0045 0.0225,-0.0023 0.0446,-0.0061 0.0665,-0.0099 0.007,-0.0012 0.0135,-0.0018 0.0201,-0.0031 0.026,-0.0051 0.0515,-0.0118 0.0766,-0.0193 0.003,-7.15e-4 0.005,-0.0012 0.008,-0.002 0.0254,-0.0077 0.0503,-0.01692 0.0746,-0.02681 0.002,-9.53e-4 0.005,-0.0018 0.007,-0.0027 0.0232,-0.0097 0.0458,-0.02061 0.0679,-0.03217 0.004,-0.0019 0.008,-0.0035 0.0112,-0.0054 0.0204,-0.01084 0.0399,-0.023 0.0593,-0.03551 0.005,-0.0033 0.0107,-0.0062 0.0159,-0.0097 0.0177,-0.01192 0.0345,-0.0249 0.0513,-0.03801 0.006,-0.0049 0.0129,-0.0093 0.0191,-0.0143 0.0174,-0.0143 0.0338,-0.02979 0.0502,-0.0454 0.005,-0.0045 0.01,-0.0085 0.0145,-0.01311 l 11.31915,-11.319149 c 0.005,-0.0046 0.009,-0.0098 0.0131,-0.01454 0.0156,-0.01632 0.0311,-0.03265 0.0454,-0.05016 0.005,-0.0061 0.01,-0.01275 0.0147,-0.01906 z M 87.069422,-16.695138 h 39.319148 v 41.106384 h -10.42553 c -0.49363,0 -0.89362,0.399983 -0.89362,0.893617 V 35.730396 H 87.069422 Z m 38.055458,42.893618 -8.26822,8.268222 V 26.19848 Z"
     id="path13"
     style="fill:#000000;stroke-width:0.119149" /><path
     d="m 53.673316,-60.859087 c -0.146074,0.213662 -0.42971,0.991721 -0.627853,1.731196 -0.557181,2.002933 -0.6178,3.988604 -0.189113,5.627112 0.427437,1.617677 1.66627,3.726064 3.332578,5.641535 0.458494,0.532801 0.486494,0.581299 0.415671,0.794623 -0.03883,0.119411 -0.616777,1.358377 -1.302884,2.746004 -0.678026,1.382961 -1.374961,2.938498 -1.540526,3.454398 -0.611017,1.872357 -0.717633,3.927693 -0.280617,5.356626 0.244342,0.796546 1.278756,2.494871 1.900826,3.105668 1.067482,1.064933 3.010844,2.022933 4.710533,2.334881 1.635942,0.294868 3.963016,0.330812 5.201711,0.06829 1.135782,-0.235433 2.432553,-0.714693 3.94006,-1.444949 0.418144,-0.209085 0.776291,-0.372756 0.780961,-0.364667 0.0046,0.0081 0.589741,0.629461 1.294564,1.364915 1.156148,1.218508 1.345896,1.453828 1.849896,2.326781 0.644,1.115441 0.745506,1.552588 0.466111,1.983327 -0.634619,0.991476 -2.924247,2.345724 -4.304437,2.549831 l -0.298487,0.04301 0.371144,-0.36516 c 0.568214,-0.565158 0.7382,-0.868066 0.929174,-1.657289 l 0.177309,-0.738225 -0.317333,-0.549637 c -0.7,-1.212436 -2.007623,-1.61064 -3.634297,-1.124122 -1.232443,0.366681 -1.9194,1.043502 -2.428599,2.382879 -0.366298,0.933554 -0.355533,1.530863 0.05047,2.234075 0.395387,0.666231 1.146479,1.127096 2.421435,1.46872 0.764974,0.204974 1.164544,0.243712 1.943429,0.19278 1.495271,-0.09811 1.933333,-0.254035 3.683907,-1.25395 1.64548,-0.93928 1.952312,-1.191831 2.506436,-2.061394 0.439133,-0.695398 0.74684,-2.047768 0.631244,-2.789319 -0.05984,-0.439648 -0.206094,-0.786297 -0.607761,-1.556674 -0.484418,-0.895037 -0.63,-1.091192 -1.588654,-2.154294 -0.586324,-0.642211 -1.163315,-1.268257 -1.283064,-1.382333 -0.124417,-0.122157 -0.21183,-0.254901 -0.185387,-0.3025 0.02642,-0.04758 0.337561,-0.367327 0.705288,-0.719737 0.852947,-0.83732 1.358909,-1.603634 1.725786,-2.66685 0.493949,-1.384457 0.462754,-2.670488 -0.08584,-3.938008 -1.419852,-3.243255 -5.76337,-4.270447 -10.018572,-2.363342 -0.488726,0.217502 -0.596303,0.236507 -0.717303,0.101596 -0.245413,-0.257068 -2.328217,-2.632591 -2.360884,-2.689171 -0.01866,-0.03233 0.09815,-0.315323 0.258808,-0.634398 0.73427,-1.490874 1.37161,-3.690967 1.49082,-5.257824 0.09788,-1.155789 0.0026,-2.53415 -0.228404,-3.45694 -0.258096,-1.025703 -1.186763,-2.634202 -2.048667,-3.548395 -1.607476,-1.701563 -3.753424,-3.178455 -4.972381,-3.423084 -0.381237,-0.08165 -0.476065,-0.05924 -0.969122,0.225431 -0.396063,0.228667 -0.610549,0.417164 -0.797952,0.708573 z m 3.897574,2.793465 c 0.09608,-0.0016 0.330239,0.06799 0.51465,0.144734 0.511568,0.232728 1.112653,1.329838 1.318836,2.396291 0.182515,0.95079 0.15896,2.160659 -0.07551,3.061213 -0.140981,0.577146 -1.155807,2.758082 -1.432121,3.100825 -0.135824,0.175413 -0.887982,-0.791364 -1.438069,-1.874808 -0.780001,-1.500341 -0.939364,-2.971027 -0.522338,-4.731383 0.327288,-1.374454 0.86375,-2.050605 1.634552,-2.096872 z m 3.168148,15.511393 c 0.602826,0.708125 0.962739,1.200846 0.942242,1.277343 -0.02175,0.05566 -0.293396,0.406492 -0.608874,0.7934 -1.556896,1.858045 -1.892268,3.237165 -1.185591,4.909166 0.356923,0.860873 0.829387,1.41794 1.577064,1.891554 1.23872,0.782857 3.512385,1.043627 4.807905,0.543534 0.457647,-0.178001 0.533805,-0.232756 0.659963,-0.499579 0.07333,-0.171661 0.118987,-0.316573 0.09349,-0.323405 -1.525282,-0.401866 -2.9999,-0.865313 -3.306225,-1.02255 -1.442377,-0.76227 -1.481074,-2.173296 -0.08133,-3.444861 0.194903,-0.166418 0.374893,-0.302666 0.413142,-0.292418 0.127491,0.03416 2.870622,3.03073 3.758694,4.10225 0.487745,0.602131 0.974238,1.18343 1.068487,1.290674 0.166417,0.194903 0.171084,0.202986 -0.208815,0.422321 -0.533472,0.308 -2.311555,0.849603 -3.174685,0.959952 -1.721592,0.22878 -3.529107,0.140742 -5.01614,-0.250874 -1.802355,-0.489774 -2.564672,-1.138147 -3.020355,-2.599412 -0.263009,-0.828876 -0.359871,-2.303316 -0.224317,-3.319195 0.12872,-0.99038 0.595585,-2.477747 1.082211,-3.426888 0.399299,-0.801727 1.183406,-2.019613 1.353147,-2.117613 0.05658,-0.03267 0.511324,0.437637 1.069983,1.106597 z m 6.376304,2.569417 c 2.059245,-0.315951 3.718029,0.429148 4.494951,2.017483 0.362169,0.739296 0.392269,1.519431 0.106712,2.126162 -0.219064,0.460571 -0.912764,1.443048 -1.002012,1.419134 -0.152994,-0.041 -4.33602,-4.803542 -4.564687,-5.199604 -0.08867,-0.153575 0.115907,-0.228578 0.965036,-0.363175 z"
     id="path2-9"
     style="fill:#000000;stroke:none;stroke-width:0.00933333" /><path
     d="m -18.101623,31.06305 -0.08664,0.0094 0.08979,1.197199 c 0.04884,0.658461 0.103967,1.392533 0.121296,1.630399 0.0441,0.568669 0.203208,2.706302 0.226837,3.044983 0.02048,0.263069 0.02048,0.264644 -0.01261,0.258343 -0.234714,-0.05671 -0.275671,-0.06143 -0.448949,-0.05356 -0.770304,0.03308 -1.683956,0.630106 -2.03209,1.326372 -0.09609,0.193758 -0.126021,0.305602 -0.126021,0.480456 0,0.23944 0.07719,0.458401 0.204784,0.582847 0.1465,0.141773 0.346558,0.20951 0.622229,0.20951 0.908927,-0.0016 2.036815,-0.825438 2.236874,-1.635123 0.02993,-0.11657 0.02835,-0.237866 -0.0078,-0.724622 -0.0094,-0.121295 -0.06301,-0.886873 -0.118144,-1.701283 -0.130747,-1.877714 -0.146499,-2.106128 -0.166978,-2.391251 -0.0094,-0.129171 -0.01261,-0.237864 -0.0094,-0.24259 0.01733,-0.01575 0.189032,0.04568 0.321355,0.114994 0.322929,0.171704 1.031798,0.68524 1.219254,0.885298 0.166977,0.17643 0.277246,0.401692 0.340257,0.694691 0.04096,0.187457 0.03623,0.576547 -0.0094,0.795508 -0.09294,0.441074 -0.248892,0.765579 -0.578121,1.194049 -0.07404,0.09767 -0.140198,0.187458 -0.144924,0.198484 -0.0031,0.01103 0.01261,0.04096 0.03623,0.06616 l 0.0441,0.04568 0.121295,-0.06301 c 0.121295,-0.06301 0.297726,-0.207935 0.411144,-0.338682 0.425321,-0.491482 0.639557,-1.249184 0.563945,-2.000584 -0.04096,-0.411144 -0.149651,-0.767154 -0.327656,-1.068029 -0.12287,-0.20951 -0.461552,-0.614352 -1.178296,-1.40671 -0.62854,-0.694685 -0.74826,-0.839609 -0.874282,-1.050695 l -0.04253,-0.07246 -0.154376,0.0031 c -0.08507,0.0016 -0.193758,0.0063 -0.241015,0.01103 z"
     id="path1-8-9"
     style="fill:#4d4d4d;stroke:none;stroke-width:0.00157526" /><path
     d="m -12.261829,26.971572 c -0.01068,0.03206 -1.087002,8.435142 -1.087002,8.496768 0,0.01972 -0.07247,-0.02958 -0.161038,-0.105993 -0.287181,-0.253893 -0.628044,-0.347563 -1.167516,-0.327841 -0.611942,0.02465 -1.062844,0.197197 -1.465437,0.562013 -0.155669,0.140505 -0.228136,0.231708 -0.300603,0.369745 -0.152985,0.295798 -0.187876,0.411652 -0.19056,0.626106 -0.0026,0.258821 0.07515,0.409185 0.324758,0.633498 0.30597,0.271146 0.595837,0.364816 1.116523,0.364816 0.705878,0 1.363447,-0.310586 1.741884,-0.818372 0.228135,-0.308122 0.222767,-0.290867 0.477743,-2.262845 0.19056,-1.471592 0.268394,-2.077975 0.389173,-2.994946 0.03758,-0.271148 0.12614,-0.963805 0.201296,-1.540609 0.144933,-1.104308 0.161037,-1.232486 0.177139,-1.232486 0.01068,0 0.689777,0.473274 1.970021,1.37299 l 0.711247,0.497925 0.02148,-0.09121 c 0.02685,-0.128182 0.233503,-1.493775 0.233503,-1.5554 0,-0.04929 0.0161,-0.03697 -2.026381,-1.400105 -1.036003,-0.687726 -0.950116,-0.635961 -0.966222,-0.594057 z"
     id="path4-1-3"
     style="fill:#666666;stroke:none;stroke-width:0.00257214" /><path
     d="m 29.746,51.8359 c 3.4687,0 8.7187,-2.6015 8.7187,-9.4922 V 20.8984 c 0,-1.1719 0.1875,-1.3828 1.2422,-1.5937 l 11.1799,-2.461 C 51.7072,16.6563 52.2462,16 52.2462,15.1797 v -8.836 c 0,-1.3125 -1.055,-2.1796 -2.3438,-1.8984 L 37.4803,7.1406 C 35.8632,7.4922 34.996,8.3359 34.996,9.7422 l 0.1406,26.0625 c 0,1.0781 -0.4922,1.7812 -1.4531,1.9687 l -3.7266,0.7969 c -4.7812,0.9844 -7.0078,3.4453 -7.0078,7.0312 0,3.6563 2.8359,6.2344 6.7969,6.2344 z M 5.3476,16.375 h 20.9531 c 0.8906,0 1.5937,-0.7266 1.5937,-1.5938 0,-0.8671 -0.7031,-1.5703 -1.5937,-1.5703 H 5.3476 c -0.8673,0 -1.5938,0.7032 -1.5938,1.5703 0,0.8672 0.7265,1.5938 1.5938,1.5938 z m 0,8.3437 h 20.9531 c 0.914,0 1.5937,-0.7265 1.5937,-1.6171 0,-0.8672 -0.7031,-1.5469 -1.5937,-1.5469 H 5.3476 c -0.8673,0 -1.5938,0.6797 -1.5938,1.5469 0,0.8906 0.7031,1.6171 1.5938,1.6171 z m 0,8.3438 h 20.9531 c 0.914,0 1.5937,-0.7031 1.5937,-1.5938 0,-0.8671 -0.7031,-1.5703 -1.5937,-1.5703 H 5.3476 c -0.8673,0 -1.5938,0.7032 -1.5938,1.5703 0,0.8907 0.7031,1.5938 1.5938,1.5938 z"
     id="path1"
     style="fill:#333333" /><path
     style="fill:#800000;fill-opacity:1;stroke-width:0.072072"
     d="m 50.375422,4.3979448 c -4.216681,0.8034669 -8.407862,1.7454896 -12.598932,2.674473 -1.007778,0.1516284 -2.079655,0.583674 -2.568157,1.541743 -0.401064,0.6104133 -0.141232,1.3687513 -0.209937,2.0526342 0.02144,8.345137 0.09622,16.692352 0.04763,25.03633 -0.0254,0.559055 0.01608,1.223952 -0.497607,1.586289 -0.541088,0.531668 -1.381665,0.510475 -2.068542,0.721374 -2.341838,0.534773 -4.849849,0.834605 -6.856991,2.270432 -1.687507,1.148527 -2.792434,3.171899 -2.653719,5.232434 -0.05913,1.155314 0.221377,2.312907 0.834741,3.296594 1.411442,2.343727 4.384682,3.368507 7.011402,2.962415 3.134407,-0.427741 5.98829,-2.634913 7.036036,-5.643862 0.432,-1.099155 0.605784,-2.276098 0.570947,-3.453688 0.09632,-7.210508 0.01459,-14.423726 0.137031,-21.633179 0.06431,-0.448192 -0.05131,-0.986344 0.218965,-1.374282 0.854451,-0.362591 1.803389,-0.462063 2.696844,-0.709523 3.160155,-0.753263 6.36105,-1.342925 9.501777,-2.176738 0.470086,-0.116796 0.953461,-0.360181 1.1043,-0.860202 0.348073,-0.523653 0.09568,-1.192867 0.168024,-1.782945 -0.01422,-2.82016 -0.01721,-5.6417546 -0.03823,-8.4610199 C 51.891802,4.9542346 51.215181,4.3242473 50.375422,4.3979448 Z"
     id="path2" /><path
     style="fill:#803300;fill-opacity:1;stroke-width:0.0268618"
     d="m 5.1817257,39.073582 c -0.229191,0.1474 -0.4047955,0.58351 -0.3269181,1.00749 0.05504,0.303721 0.2305834,0.582975 0.4263713,0.52878 1.9340921,0.03175 3.8684593,0.03417 5.8025881,0.01351 0.172001,-0.0088 0.379537,0.0329 0.496275,-0.238821 0.204051,-0.35366 0.135631,-1.051127 -0.140805,-1.237199 -0.154353,-0.156457 -0.346892,-0.04002 -0.518044,-0.07583 -1.9131049,0.0013 -3.8266118,-0.0028 -5.7394673,0.002 z"
     id="path5-6" /><path
     style="fill:#803300;fill-opacity:1;stroke-width:0.0284585"
     d="m 12.165475,34.642999 c -0.257246,0.1474 -0.454346,0.58351 -0.366936,1.00749 0.06178,0.303721 0.258809,0.582975 0.478563,0.52878 2.170843,0.03175 4.341995,0.03417 6.512879,0.01351 0.193056,-0.0088 0.425997,0.0329 0.557024,-0.238821 0.22903,-0.35366 0.152233,-1.051127 -0.15804,-1.237199 -0.173249,-0.156457 -0.389354,-0.04002 -0.581458,-0.07583 -2.147287,0.0013 -4.295025,-0.0028 -6.442032,0.002 z"
     id="path5-6-5" /><path
     style="fill:#aa4400;fill-opacity:1;stroke-width:0.0605757"
     d="m -2.1055052,30.610073 c -1.1655307,0.1474 -2.0585517,0.58351 -1.6625128,1.00749 0.2799025,0.303721 1.1726107,0.582975 2.1682738,0.52878 9.8356577,0.03175 19.6727142,0.03417 29.5085602,0.01351 0.874694,-0.0088 1.930101,0.0329 2.523761,-0.238821 1.037689,-0.35366 0.689736,-1.051127 -0.71605,-1.237199 -0.784953,-0.156457 -1.764085,-0.04002 -2.634466,-0.07583 -9.728932,0.0013 -19.4599051,-0.0028 -29.1875662,0.002 z"
     id="path5-6-5-2" /><path
     style="fill:#ff6600;fill-opacity:1;stroke-width:0.0740773"
     d="m -0.53873422,22.392998 c -1.74299898,0.1474 -3.07847198,0.58351 -2.48621308,1.00749 0.4185794,0.303721 1.7535868,0.582975 3.24255542,0.52878 14.70878288,0.03175 29.41965888,0.03417 44.12872188,0.01351 1.308064,-0.0088 2.886378,0.0329 3.77417,-0.238821 1.551818,-0.35366 1.031473,-1.051127 -1.070819,-1.237199 -1.173863,-0.156457 -2.638112,-0.04002 -3.939726,-0.07583 -14.549178,0.0013 -29.10141,-0.0028 -43.64868922,0.002 z"
     id="path5-6-5-2-1" /><path
     style="fill:#ff7f2a;fill-opacity:1;stroke-width:0.0767375"
     d="m -0.92406581,18.245499 c -1.87041589,0.1474 -3.30351499,0.58351 -2.66796079,1.00749 0.4491803,0.303721 1.881778,0.582975 3.47959378,0.52878 15.78402682,0.03175 31.57030082,0.03417 47.35462982,0.01351 1.403689,-0.0088 3.09738,0.0329 4.050071,-0.238821 1.665254,-0.35366 1.106872,-1.051127 -1.149101,-1.237199 -1.259672,-0.156457 -2.830963,-0.04002 -4.227733,-0.07583 -15.61275,0.0013 -31.22878,-0.0028 -46.83949981,0.002 z"
     id="path5-6-5-2-1-6" /><path
     style="fill:#d45500;fill-opacity:1;stroke-width:0.068529"
     d="m -1.2152824,26.610498 c -1.4916716,0.1474 -2.6345796,0.58351 -2.12772,1.00749 0.3582249,0.303721 1.5007329,0.582975 2.77500392,0.52878 12.58788848,0.03175 25.17756848,0.03417 37.76569648,0.01351 1.119454,-0.0088 2.470185,0.0329 3.229964,-0.238821 1.328056,-0.35366 0.882741,-1.051127 -0.916416,-1.237199 -1.004599,-0.156457 -2.257716,-0.04002 -3.371651,-0.07583 -12.451295,0.0013 -24.905204,-0.0028 -37.3548774,0.002 z"
     id="path5-6-5-2-1-6-4" /><path
     style="fill:#ff9955;fill-opacity:1;stroke-width:0.0770483"
     d="m -0.05235338,14.047258 c -1.88561182,0.1474 -3.33035412,0.58351 -2.68963682,1.00749 0.4528314,0.303721 1.89706842,0.582975 3.50786508,0.52878 15.91226812,0.03175 31.82679812,0.03417 47.73936912,0.01351 1.415094,-0.0088 3.122544,0.0329 4.082978,-0.238821 1.678786,-0.35366 1.115865,-1.051127 -1.158437,-1.237199 -1.269907,-0.156457 -2.853964,-0.04002 -4.262078,-0.07583 -15.739602,0.0013 -31.48251,-0.0028 -47.22006038,0.002 z"
     id="path5-6-5-2-1-3" /><path
     d="m -16.130884,2.3454831 h 7.1404441 c 0.190856,0 0.345505,-0.464493 0.345505,-1.037742 0,-0.57324803 -0.154649,-1.03774203 -0.345505,-1.03774203 h -7.1404441 c -0.190857,0 -0.345505,0.464494 -0.345505,1.03774203 0,0.573249 0.154648,1.037742 0.345505,1.037742 z"
     id="path8"
     style="fill:#666666;stroke-width:0.079838" /><path
     d="m -16.130884,6.4964521 h 5.57452 c 0.190858,0 0.345506,-0.464494 0.345506,-1.037742 0,-0.573249 -0.154648,-1.037742 -0.345506,-1.037742 h -5.57452 c -0.190857,0 -0.345505,0.464493 -0.345505,1.037742 0,0.573248 0.154648,1.037742 0.345505,1.037742 z"
     id="path10"
     style="fill:#4d4d4d;stroke-width:0.079838" /><path
     d="m 30.304635,41.133794 c 0,2.796869 2.50308,5.072304 5.579533,5.072304 3.076454,0 5.579534,-2.275435 5.579534,-5.072304 V 25.45003 c 0.823336,0.289933 1.678121,0.382655 2.372012,0.457927 2.01979,0.219125 2.70029,0.292774 2.70029,2.54508 0,0.840581 0.681109,1.52169 1.521692,1.52169 0.840582,0 1.521691,-0.681109 1.521691,-1.52169 0,-4.983437 -3.389921,-5.351078 -5.415394,-5.570606 -2.019791,-0.219125 -2.700291,-0.292774 -2.700291,-2.54508 0,-0.840581 -0.681109,-1.52169 -1.521692,-1.52169 -0.840581,0 -1.52169,0.681109 -1.52169,1.52169 v 16.280673 c -0.761455,-0.354857 -1.623138,-0.556532 -2.536152,-0.556532 -3.076453,0 -5.579533,2.275435 -5.579533,5.072302 z m 8.115685,0 c 0,1.118748 -1.137616,2.028922 -2.536152,2.028922 -1.398536,0 -2.536151,-0.910174 -2.536151,-2.028922 0,-1.118746 1.137615,-2.02892 2.536151,-2.02892 1.398536,0 2.536152,0.910174 2.536152,2.02892 z"
     id="path7"
     style="fill:#808080;stroke-width:0.202892" /><path
     d="m 48.057696,30.989188 h -2.028922 c -0.840581,0 -1.52169,0.681109 -1.52169,1.521691 0,0.840582 0.681109,1.521691 1.52169,1.521691 h 2.028922 c 0.840582,0 1.521691,-0.681109 1.521691,-1.521691 0,-0.840582 -0.681109,-1.521691 -1.521691,-1.521691 z"
     id="path9"
     style="fill:#666666;stroke-width:0.202892" /><path
     d="m 48.057696,37.075952 h -2.028922 c -0.840581,0 -1.52169,0.681109 -1.52169,1.521691 0,0.840582 0.681109,1.521691 1.52169,1.521691 h 2.028922 c 0.840582,0 1.521691,-0.681109 1.521691,-1.521691 0,-0.840582 -0.681109,-1.521691 -1.521691,-1.521691 z"
     id="path11"
     style="fill:#4d4d4d;stroke-width:0.202892" /><path
     d="m -16.130884,-1.8054849 h 7.1404441 c 0.190856,0 0.345505,-0.464494 0.345505,-1.037742 0,-0.573249 -0.154649,-1.037742 -0.345505,-1.037742 h -7.1404441 c -0.190857,0 -0.345505,0.464493 -0.345505,1.037742 0,0.573248 0.154648,1.037742 0.345505,1.037742 z"
     id="path12"
     style="fill:#808080;stroke-width:0.079838" /><g
     id="g7"
     transform="translate(4.2)"><path
       style="fill:#aa0000;fill-opacity:1;stroke-width:1.0296"
       d="m 197.23495,188.39688 c -42.65218,0.32912 -85.35195,-0.27705 -127.972161,1.2327 -14.940231,4.0526 -20.76469,24.60186 -10.454874,36.06419 6.259543,8.32515 17.238159,8.98851 26.74909,8.44091 97.560105,0.62683 195.137065,0.87247 292.691365,-0.36799 15.94555,-0.62701 25.47024,-20.70397 17.21898,-33.9698 -3.99917,-7.93773 -12.96939,-11.92837 -21.61761,-10.67808 -58.86498,-0.89567 -117.74456,-0.71311 -176.61479,-0.72193 z"
       id="path3"
       transform="scale(0.07)" /><path
       style="fill:#d40000;fill-opacity:1;stroke-width:1.0296"
       d="m 180.0917,307.87484 c -36.77792,0.37399 -73.61464,-0.66905 -110.354329,1.11808 -15.676781,3.24582 -21.380924,25.17157 -10.61776,36.51665 6.971835,9.09753 19.295192,6.62049 29.210557,7.25974 93.048212,0.46912 186.105452,0.57414 279.152672,-0.0698 8.6696,-0.27358 19.14065,0.97774 25.02907,-6.98386 9.69496,-9.77136 7.45246,-29.52401 -5.80623,-35.09792 -8.39992,-5.32065 -18.89885,-1.69408 -28.29392,-2.75298 -59.44002,0.003 -118.88004,-0.007 -178.32006,0.0101 z"
       id="path4"
       transform="scale(0.07)" /><path
       style="fill:#ff2a2a;fill-opacity:1;stroke-width:1.0296"
       d="m 70.80518,426.84403 c -11.523684,4.30688 -20.353066,17.04974 -16.437419,29.43814 2.767438,8.8745 11.59372,17.03412 21.437901,15.45063 97.245978,0.92762 194.505788,0.99847 291.753608,0.39471 8.64819,-0.26025 19.08306,0.96175 24.95264,-6.97811 10.25967,-10.33375 6.81947,-30.71326 -7.07969,-36.15016 -7.76087,-4.57148 -17.44165,-1.16952 -26.04717,-2.21554 -96.19075,0.0403 -192.4017,-0.0804 -288.57987,0.0603 z"
       id="path5"
       transform="scale(0.07)" /></g><path
     d="m 16.863336,26.713908 c -0.0041,0.01032 0,0.614973 0.0062,1.347576 0.04953,4.562768 0.06191,5.97019 0.05365,5.978445 -0.0062,0.0041 -0.03715,-0.0041 -0.07016,-0.0227 -0.136202,-0.07016 -0.390033,-0.115564 -0.639736,-0.115564 -0.538617,0.002 -1.035962,0.187793 -1.504414,0.565445 -0.439561,0.352886 -0.662437,0.7099 -0.685138,1.087552 -0.02683,0.484961 0.270341,0.846104 0.817213,0.992624 0.227003,0.05984 0.625291,0.05778 0.885313,-0.002 0.443688,-0.10112 0.806894,-0.290978 1.108189,-0.577827 0.183666,-0.177476 0.408606,-0.466389 0.487026,-0.629419 0.125883,-0.266213 0.127947,-0.299232 0.115565,-1.51886 -0.0082,-0.606718 -0.01857,-2.457828 -0.02476,-4.112889 l -0.01238,-3.006821 h -0.266213 c -0.144456,0 -0.266213,0.0062 -0.27034,0.01445 z"
     id="path3-6"
     style="fill:#808080;stroke:none;stroke-width:0.00206366" /><path
     d="m 13.13127,29.064439 c -0.0041,0.01032 0,0.614973 0.0062,1.347576 0.04953,4.562768 0.06191,5.97019 0.05365,5.978445 -0.0062,0.0041 -0.03715,-0.0041 -0.07016,-0.0227 -0.136202,-0.07016 -0.390033,-0.115564 -0.639736,-0.115564 -0.538617,0.002 -1.035962,0.187793 -1.504414,0.565445 -0.439561,0.352886 -0.662437,0.7099 -0.685138,1.087552 -0.02683,0.484961 0.270341,0.846104 0.817213,0.992624 0.227003,0.05984 0.625291,0.05778 0.885313,-0.002 0.443688,-0.10112 0.806894,-0.290978 1.108189,-0.577827 0.183666,-0.177476 0.408606,-0.466389 0.487026,-0.629419 0.125883,-0.266213 0.127947,-0.299232 0.115565,-1.51886 -0.0082,-0.606718 -0.01857,-2.457828 -0.02476,-4.112889 l -0.01238,-3.006821 h -0.266213 c -0.144456,0 -0.266213,0.0062 -0.27034,0.01445 z"
     id="path3-6-6"
     style="fill:#666666;stroke:none;stroke-width:0.00206366" /><path
     d="m 9.31627,31.339439 c -0.0041,0.01032 0,0.614973 0.0062,1.347576 0.04953,4.562768 0.06191,5.97019 0.05365,5.978445 -0.0062,0.0041 -0.03715,-0.0041 -0.07016,-0.0227 -0.136202,-0.07016 -0.390033,-0.115564 -0.639736,-0.115564 -0.538617,0.002 -1.035962,0.187793 -1.504414,0.565445 -0.439561,0.352886 -0.662437,0.7099 -0.685138,1.087552 -0.02683,0.484961 0.270341,0.846104 0.817213,0.992624 0.227003,0.05984 0.625291,0.05778 0.885313,-0.002 0.443688,-0.10112 0.806894,-0.290978 1.108189,-0.577827 0.183666,-0.177476 0.408606,-0.466389 0.487026,-0.629419 0.125883,-0.266213 0.127947,-0.299232 0.115565,-1.51886 -0.0082,-0.606718 -0.01857,-2.457828 -0.02476,-4.112889 L 9.852838,31.325001 H 9.586625 c -0.144456,0 -0.266213,0.0062 -0.27034,0.01445 z"
     id="path3-6-4"
     style="fill:#4d4d4d;stroke:none;stroke-width:0.00206366" /></svg>
