<?xml version="1.0" encoding="UTF-8" standalone="no"?>
<!-- Uploaded to: SVG Repo, www.svgrepo.com, Generator: SVG Repo Mixer Tools -->

<svg
   fill="#000000"
   width="800px"
   height="800px"
   viewBox="0 0 56 56"
   version="1.1"
   id="svg1"
   sodipodi:docname="music-note-list.svg"
   xml:space="preserve"
   inkscape:version="1.3.2 (091e20e, 2023-11-25, custom)"
   inkscape:export-filename="music-note-list.png"
   inkscape:export-xdpi="415.40485"
   inkscape:export-ydpi="415.40485"
   xmlns:inkscape="http://www.inkscape.org/namespaces/inkscape"
   xmlns:sodipodi="http://sodipodi.sourceforge.net/DTD/sodipodi-0.dtd"
   xmlns="http://www.w3.org/2000/svg"
   xmlns:svg="http://www.w3.org/2000/svg"><defs
     id="defs1"><inkscape:path-effect
   effect="fillet_chamfer"
   id="path-effect19"
   is_visible="true"
   lpeversion="1"
   nodesatellites_param="F,0,0,1,0,15.01835,0,1 @ F,0,0,1,0,0,0,1 @ F,0,0,1,0,16.899254,0,1 @ F,0,0,1,0,0,0,1"
   radius="0"
   unit="px"
   method="auto"
   mode="F"
   chamfer_steps="1"
   flexible="false"
   use_knot_distance="true"
   apply_no_radius="true"
   apply_with_radius="true"
   only_selected="false"
   hide_knots="false" />
	
	
	
	
	
	
	
	
	
	
	
	
	
</defs><sodipodi:namedview
     id="namedview1"
     pagecolor="#505050"
     bordercolor="#ffffff"
     borderopacity="1"
     inkscape:showpageshadow="0"
     inkscape:pageopacity="0"
     inkscape:pagecheckerboard="1"
     inkscape:deskcolor="#505050"
     inkscape:zoom="1"
     inkscape:cx="316.5"
     inkscape:cy="286.5"
     inkscape:window-width="1920"
     inkscape:window-height="991"
     inkscape:window-x="-9"
     inkscape:window-y="-9"
     inkscape:window-maximized="1"
     inkscape:current-layer="svg1" /><path
     style="fill:#e9afaf;fill-opacity:1;stroke-width:0.0644327"
     id="rect9"
     width="56.138294"
     height="55.960201"
     x="-0.13999973"
     y="-8.8375351e-08"
     inkscape:path-effect="#path-effect19"
     sodipodi:type="rect"
     d="m 14.87835,-8.8375351e-8 41.119944,0 V 39.060947 A 16.899254,16.899254 135 0 1 39.09904,55.960201 l -39.23903973,0 V 15.01835 A 15.01835,15.01835 135 0 1 14.87835,-8.8375351e-8 Z" /><g
     inkscape:groupmode="layer"
     id="layer1"
     inkscape:label="Layer 1" /><path
     d="m 29.746,51.8359 c 3.4687,0 8.7187,-2.6015 8.7187,-9.4922 V 20.8984 c 0,-1.1719 0.1875,-1.3828 1.2422,-1.5937 l 11.1799,-2.461 C 51.7072,16.6563 52.2462,16 52.2462,15.1797 v -8.836 c 0,-1.3125 -1.055,-2.1796 -2.3438,-1.8984 L 37.4803,7.1406 C 35.8632,7.4922 34.996,8.3359 34.996,9.7422 l 0.1406,26.0625 c 0,1.0781 -0.4922,1.7812 -1.4531,1.9687 l -3.7266,0.7969 c -4.7812,0.9844 -7.0078,3.4453 -7.0078,7.0312 0,3.6563 2.8359,6.2344 6.7969,6.2344 z M 5.3476,16.375 h 20.9531 c 0.8906,0 1.5937,-0.7266 1.5937,-1.5938 0,-0.8671 -0.7031,-1.5703 -1.5937,-1.5703 H 5.3476 c -0.8673,0 -1.5938,0.7032 -1.5938,1.5703 0,0.8672 0.7265,1.5938 1.5938,1.5938 z m 0,8.3437 h 20.9531 c 0.914,0 1.5937,-0.7265 1.5937,-1.6171 0,-0.8672 -0.7031,-1.5469 -1.5937,-1.5469 H 5.3476 c -0.8673,0 -1.5938,0.6797 -1.5938,1.5469 0,0.8906 0.7031,1.6171 1.5938,1.6171 z m 0,8.3438 h 20.9531 c 0.914,0 1.5937,-0.7031 1.5937,-1.5938 0,-0.8671 -0.7031,-1.5703 -1.5937,-1.5703 H 5.3476 c -0.8673,0 -1.5938,0.7032 -1.5938,1.5703 0,0.8907 0.7031,1.5938 1.5938,1.5938 z"
     id="path1"
     style="fill:#333333" /><path
     style="fill:#800000;fill-opacity:1;stroke-width:0.072072"
     d="m 50.375422,4.3979448 c -4.216681,0.8034669 -8.407862,1.7454896 -12.598932,2.674473 -1.007778,0.1516284 -2.079655,0.583674 -2.568157,1.541743 -0.401064,0.6104133 -0.141232,1.3687513 -0.209937,2.0526342 0.02144,8.345137 0.09622,16.692352 0.04763,25.03633 -0.0254,0.559055 0.01608,1.223952 -0.497607,1.586289 -0.541088,0.531668 -1.381665,0.510475 -2.068542,0.721374 -2.341838,0.534773 -4.849849,0.834605 -6.856991,2.270432 -1.687507,1.148527 -2.792434,3.171899 -2.653719,5.232434 -0.05913,1.155314 0.221377,2.312907 0.834741,3.296594 1.411442,2.343727 4.384682,3.368507 7.011402,2.962415 3.134407,-0.427741 5.98829,-2.634913 7.036036,-5.643862 0.432,-1.099155 0.605784,-2.276098 0.570947,-3.453688 0.09632,-7.210508 0.01459,-14.423726 0.137031,-21.633179 0.06431,-0.448192 -0.05131,-0.986344 0.218965,-1.374282 0.854451,-0.362591 1.803389,-0.462063 2.696844,-0.709523 3.160155,-0.753263 6.36105,-1.342925 9.501777,-2.176738 0.470086,-0.116796 0.953461,-0.360181 1.1043,-0.860202 0.348073,-0.523653 0.09568,-1.192867 0.168024,-1.782945 -0.01422,-2.82016 -0.01721,-5.6417546 -0.03823,-8.4610199 C 51.891802,4.9542346 51.215181,4.3242473 50.375422,4.3979448 Z"
     id="path2" /><path
     style="fill:#803300;fill-opacity:1;stroke-width:0.0268618"
     d="m 5.1817257,39.073582 c -0.229191,0.1474 -0.4047955,0.58351 -0.3269181,1.00749 0.05504,0.303721 0.2305834,0.582975 0.4263713,0.52878 1.9340921,0.03175 3.8684593,0.03417 5.8025881,0.01351 0.172001,-0.0088 0.379537,0.0329 0.496275,-0.238821 0.204051,-0.35366 0.135631,-1.051127 -0.140805,-1.237199 -0.154353,-0.156457 -0.346892,-0.04002 -0.518044,-0.07583 -1.9131049,0.0013 -3.8266118,-0.0028 -5.7394673,0.002 z"
     id="path5-6" /><path
     style="fill:#803300;fill-opacity:1;stroke-width:0.0284585"
     d="m 12.165475,34.642999 c -0.257246,0.1474 -0.454346,0.58351 -0.366936,1.00749 0.06178,0.303721 0.258809,0.582975 0.478563,0.52878 2.170843,0.03175 4.341995,0.03417 6.512879,0.01351 0.193056,-0.0088 0.425997,0.0329 0.557024,-0.238821 0.22903,-0.35366 0.152233,-1.051127 -0.15804,-1.237199 -0.173249,-0.156457 -0.389354,-0.04002 -0.581458,-0.07583 -2.147287,0.0013 -4.295025,-0.0028 -6.442032,0.002 z"
     id="path5-6-5" /><path
     style="fill:#aa4400;fill-opacity:1;stroke-width:0.0605757"
     d="m -2.1055052,30.610073 c -1.1655307,0.1474 -2.0585517,0.58351 -1.6625128,1.00749 0.2799025,0.303721 1.1726107,0.582975 2.1682738,0.52878 9.8356577,0.03175 19.6727142,0.03417 29.5085602,0.01351 0.874694,-0.0088 1.930101,0.0329 2.523761,-0.238821 1.037689,-0.35366 0.689736,-1.051127 -0.71605,-1.237199 -0.784953,-0.156457 -1.764085,-0.04002 -2.634466,-0.07583 -9.728932,0.0013 -19.4599051,-0.0028 -29.1875662,0.002 z"
     id="path5-6-5-2" /><path
     style="fill:#ff6600;fill-opacity:1;stroke-width:0.0740773"
     d="m -0.53873422,22.392998 c -1.74299898,0.1474 -3.07847198,0.58351 -2.48621308,1.00749 0.4185794,0.303721 1.7535868,0.582975 3.24255542,0.52878 14.70878288,0.03175 29.41965888,0.03417 44.12872188,0.01351 1.308064,-0.0088 2.886378,0.0329 3.77417,-0.238821 1.551818,-0.35366 1.031473,-1.051127 -1.070819,-1.237199 -1.173863,-0.156457 -2.638112,-0.04002 -3.939726,-0.07583 -14.549178,0.0013 -29.10141,-0.0028 -43.64868922,0.002 z"
     id="path5-6-5-2-1" /><path
     style="fill:#ff7f2a;fill-opacity:1;stroke-width:0.0767375"
     d="m -0.92406581,18.245499 c -1.87041589,0.1474 -3.30351499,0.58351 -2.66796079,1.00749 0.4491803,0.303721 1.881778,0.582975 3.47959378,0.52878 15.78402682,0.03175 31.57030082,0.03417 47.35462982,0.01351 1.403689,-0.0088 3.09738,0.0329 4.050071,-0.238821 1.665254,-0.35366 1.106872,-1.051127 -1.149101,-1.237199 -1.259672,-0.156457 -2.830963,-0.04002 -4.227733,-0.07583 -15.61275,0.0013 -31.22878,-0.0028 -46.83949981,0.002 z"
     id="path5-6-5-2-1-6" /><path
     style="fill:#d45500;fill-opacity:1;stroke-width:0.068529"
     d="m -1.2152824,26.610498 c -1.4916716,0.1474 -2.6345796,0.58351 -2.12772,1.00749 0.3582249,0.303721 1.5007329,0.582975 2.77500392,0.52878 12.58788848,0.03175 25.17756848,0.03417 37.76569648,0.01351 1.119454,-0.0088 2.470185,0.0329 3.229964,-0.238821 1.328056,-0.35366 0.882741,-1.051127 -0.916416,-1.237199 -1.004599,-0.156457 -2.257716,-0.04002 -3.371651,-0.07583 -12.451295,0.0013 -24.905204,-0.0028 -37.3548774,0.002 z"
     id="path5-6-5-2-1-6-4" /><path
     style="fill:#ff9955;fill-opacity:1;stroke-width:0.0770483"
     d="m -0.05235338,14.047258 c -1.88561182,0.1474 -3.33035412,0.58351 -2.68963682,1.00749 0.4528314,0.303721 1.89706842,0.582975 3.50786508,0.52878 15.91226812,0.03175 31.82679812,0.03417 47.73936912,0.01351 1.415094,-0.0088 3.122544,0.0329 4.082978,-0.238821 1.678786,-0.35366 1.115865,-1.051127 -1.158437,-1.237199 -1.269907,-0.156457 -2.853964,-0.04002 -4.262078,-0.07583 -15.739602,0.0013 -31.48251,-0.0028 -47.22006038,0.002 z"
     id="path5-6-5-2-1-3" /><path
     d="m 30.304635,41.133794 c 0,2.796869 2.50308,5.072304 5.579533,5.072304 3.076454,0 5.579534,-2.275435 5.579534,-5.072304 V 25.45003 c 0.823336,0.289933 1.678121,0.382655 2.372012,0.457927 2.01979,0.219125 2.70029,0.292774 2.70029,2.54508 0,0.840581 0.681109,1.52169 1.521692,1.52169 0.840582,0 1.521691,-0.681109 1.521691,-1.52169 0,-4.983437 -3.389921,-5.351078 -5.415394,-5.570606 -2.019791,-0.219125 -2.700291,-0.292774 -2.700291,-2.54508 0,-0.840581 -0.681109,-1.52169 -1.521692,-1.52169 -0.840581,0 -1.52169,0.681109 -1.52169,1.52169 v 16.280673 c -0.761455,-0.354857 -1.623138,-0.556532 -2.536152,-0.556532 -3.076453,0 -5.579533,2.275435 -5.579533,5.072302 z m 8.115685,0 c 0,1.118748 -1.137616,2.028922 -2.536152,2.028922 -1.398536,0 -2.536151,-0.910174 -2.536151,-2.028922 0,-1.118746 1.137615,-2.02892 2.536151,-2.02892 1.398536,0 2.536152,0.910174 2.536152,2.02892 z"
     id="path7"
     style="fill:#808080;stroke-width:0.202892" /><path
     d="m 48.057696,30.989188 h -2.028922 c -0.840581,0 -1.52169,0.681109 -1.52169,1.521691 0,0.840582 0.681109,1.521691 1.52169,1.521691 h 2.028922 c 0.840582,0 1.521691,-0.681109 1.521691,-1.521691 0,-0.840582 -0.681109,-1.521691 -1.521691,-1.521691 z"
     id="path9"
     style="fill:#666666;stroke-width:0.202892" /><path
     d="m 48.057696,37.075952 h -2.028922 c -0.840581,0 -1.52169,0.681109 -1.52169,1.521691 0,0.840582 0.681109,1.521691 1.52169,1.521691 h 2.028922 c 0.840582,0 1.521691,-0.681109 1.521691,-1.521691 0,-0.840582 -0.681109,-1.521691 -1.521691,-1.521691 z"
     id="path11"
     style="fill:#4d4d4d;stroke-width:0.202892" /><g
     id="g7"
     transform="translate(4.2)"><path
       style="fill:#aa0000;fill-opacity:1;stroke-width:1.0296"
       d="m 197.23495,188.39688 c -42.65218,0.32912 -85.35195,-0.27705 -127.972161,1.2327 -14.940231,4.0526 -20.76469,24.60186 -10.454874,36.06419 6.259543,8.32515 17.238159,8.98851 26.74909,8.44091 97.560105,0.62683 195.137065,0.87247 292.691365,-0.36799 15.94555,-0.62701 25.47024,-20.70397 17.21898,-33.9698 -3.99917,-7.93773 -12.96939,-11.92837 -21.61761,-10.67808 -58.86498,-0.89567 -117.74456,-0.71311 -176.61479,-0.72193 z"
       id="path3"
       transform="scale(0.07)" /><path
       style="fill:#d40000;fill-opacity:1;stroke-width:1.0296"
       d="m 180.0917,307.87484 c -36.77792,0.37399 -73.61464,-0.66905 -110.354329,1.11808 -15.676781,3.24582 -21.380924,25.17157 -10.61776,36.51665 6.971835,9.09753 19.295192,6.62049 29.210557,7.25974 93.048212,0.46912 186.105452,0.57414 279.152672,-0.0698 8.6696,-0.27358 19.14065,0.97774 25.02907,-6.98386 9.69496,-9.77136 7.45246,-29.52401 -5.80623,-35.09792 -8.39992,-5.32065 -18.89885,-1.69408 -28.29392,-2.75298 -59.44002,0.003 -118.88004,-0.007 -178.32006,0.0101 z"
       id="path4"
       transform="scale(0.07)" /><path
       style="fill:#ff2a2a;fill-opacity:1;stroke-width:1.0296"
       d="m 70.80518,426.84403 c -11.523684,4.30688 -20.353066,17.04974 -16.437419,29.43814 2.767438,8.8745 11.59372,17.03412 21.437901,15.45063 97.245978,0.92762 194.505788,0.99847 291.753608,0.39471 8.64819,-0.26025 19.08306,0.96175 24.95264,-6.97811 10.25967,-10.33375 6.81947,-30.71326 -7.07969,-36.15016 -7.76087,-4.57148 -17.44165,-1.16952 -26.04717,-2.21554 -96.19075,0.0403 -192.4017,-0.0804 -288.57987,0.0603 z"
       id="path5"
       transform="scale(0.07)" /></g><path
     d="m 16.863336,26.713908 c -0.0041,0.01032 0,0.614973 0.0062,1.347576 0.04953,4.562768 0.06191,5.97019 0.05365,5.978445 -0.0062,0.0041 -0.03715,-0.0041 -0.07016,-0.0227 -0.136202,-0.07016 -0.390033,-0.115564 -0.639736,-0.115564 -0.538617,0.002 -1.035962,0.187793 -1.504414,0.565445 -0.439561,0.352886 -0.662437,0.7099 -0.685138,1.087552 -0.02683,0.484961 0.270341,0.846104 0.817213,0.992624 0.227003,0.05984 0.625291,0.05778 0.885313,-0.002 0.443688,-0.10112 0.806894,-0.290978 1.108189,-0.577827 0.183666,-0.177476 0.408606,-0.466389 0.487026,-0.629419 0.125883,-0.266213 0.127947,-0.299232 0.115565,-1.51886 -0.0082,-0.606718 -0.01857,-2.457828 -0.02476,-4.112889 l -0.01238,-3.006821 h -0.266213 c -0.144456,0 -0.266213,0.0062 -0.27034,0.01445 z"
     id="path3-6"
     style="fill:#808080;stroke:none;stroke-width:0.00206366" /><path
     d="m 13.13127,29.064439 c -0.0041,0.01032 0,0.614973 0.0062,1.347576 0.04953,4.562768 0.06191,5.97019 0.05365,5.978445 -0.0062,0.0041 -0.03715,-0.0041 -0.07016,-0.0227 -0.136202,-0.07016 -0.390033,-0.115564 -0.639736,-0.115564 -0.538617,0.002 -1.035962,0.187793 -1.504414,0.565445 -0.439561,0.352886 -0.662437,0.7099 -0.685138,1.087552 -0.02683,0.484961 0.270341,0.846104 0.817213,0.992624 0.227003,0.05984 0.625291,0.05778 0.885313,-0.002 0.443688,-0.10112 0.806894,-0.290978 1.108189,-0.577827 0.183666,-0.177476 0.408606,-0.466389 0.487026,-0.629419 0.125883,-0.266213 0.127947,-0.299232 0.115565,-1.51886 -0.0082,-0.606718 -0.01857,-2.457828 -0.02476,-4.112889 l -0.01238,-3.006821 h -0.266213 c -0.144456,0 -0.266213,0.0062 -0.27034,0.01445 z"
     id="path3-6-6"
     style="fill:#666666;stroke:none;stroke-width:0.00206366" /><path
     d="m 9.31627,31.339439 c -0.0041,0.01032 0,0.614973 0.0062,1.347576 0.04953,4.562768 0.06191,5.97019 0.05365,5.978445 -0.0062,0.0041 -0.03715,-0.0041 -0.07016,-0.0227 -0.136202,-0.07016 -0.390033,-0.115564 -0.639736,-0.115564 -0.538617,0.002 -1.035962,0.187793 -1.504414,0.565445 -0.439561,0.352886 -0.662437,0.7099 -0.685138,1.087552 -0.02683,0.484961 0.270341,0.846104 0.817213,0.992624 0.227003,0.05984 0.625291,0.05778 0.885313,-0.002 0.443688,-0.10112 0.806894,-0.290978 1.108189,-0.577827 0.183666,-0.177476 0.408606,-0.466389 0.487026,-0.629419 0.125883,-0.266213 0.127947,-0.299232 0.115565,-1.51886 -0.0082,-0.606718 -0.01857,-2.457828 -0.02476,-4.112889 L 9.852838,31.325001 H 9.586625 c -0.144456,0 -0.266213,0.0062 -0.27034,0.01445 z"
     id="path3-6-4"
     style="fill:#4d4d4d;stroke:none;stroke-width:0.00206366" /></svg>
