<svg width="52" height="52" viewBox="0 0 52 52" fill="none" xmlns="http://www.w3.org/2000/svg">
<g clip-path="url(#clip0_31_44)">
<path d="M13.8156 0H51.9984V36.2709C51.9984 40.4327 50.3451 44.4241 47.4023 47.3669C44.4594 50.3098 40.4681 51.9631 36.3062 51.9631H-0.130005V13.9456C-0.130005 10.247 1.33926 6.69989 3.95457 4.08458C6.56988 1.46927 10.117 6.64936e-08 13.8156 0Z" fill="#B5BFE7"/>
<path d="M27.6213 48.1333C30.8423 48.1333 35.7173 45.7176 35.7173 39.3191V19.4057C35.7173 18.3175 35.8914 18.1216 36.8708 17.9258L47.2521 15.6406C48.0139 15.4666 48.5144 14.8571 48.5144 14.0954V5.89058C48.5144 4.67183 47.5348 3.86667 46.338 4.12778L34.8032 6.63056C33.3016 6.95704 32.4963 7.74048 32.4963 9.04633L32.6269 33.2472C32.6269 34.2483 32.1699 34.9012 31.2776 35.0753L27.8172 35.8153C23.3775 36.7294 21.3099 39.0145 21.3099 42.3442C21.3099 45.7394 23.9433 48.1333 27.6213 48.1333ZM4.96568 15.2054H24.4221C25.2491 15.2054 25.902 14.5307 25.902 13.7254C25.902 12.9202 25.2491 12.2673 24.4221 12.2673H4.96568C4.16033 12.2673 3.48572 12.9202 3.48572 13.7254C3.48572 14.5307 4.16033 15.2054 4.96568 15.2054ZM4.96568 22.9531H24.4221C25.2708 22.9531 25.902 22.2785 25.902 21.4515C25.902 20.6462 25.2491 20.0151 24.4221 20.0151H4.96568C4.16033 20.0151 3.48572 20.6462 3.48572 21.4515C3.48572 22.2785 4.1386 22.9531 4.96568 22.9531ZM4.96568 30.7009H24.4221C25.2708 30.7009 25.902 30.048 25.902 29.2209C25.902 28.4158 25.2491 27.7628 24.4221 27.7628H4.96568C4.16033 27.7628 3.48572 28.4158 3.48572 29.2209C3.48572 30.048 4.1386 30.7009 4.96568 30.7009Z" fill="#333333"/>
<path d="M46.7772 4.08381C42.8617 4.82988 38.9699 5.70462 35.0782 6.56724C34.1424 6.70804 33.1471 7.10922 32.6934 7.99886C32.321 8.56567 32.5623 9.26984 32.4985 9.90488C32.5184 17.6539 32.5878 25.4049 32.5427 33.1529C32.5191 33.672 32.5577 34.2894 32.0807 34.6259C31.5782 35.1195 30.7977 35.0999 30.1599 35.2957C27.9853 35.7923 25.6565 36.0707 23.7927 37.404C22.2257 38.4704 21.1997 40.3493 21.3285 42.2626C21.2736 43.3354 21.5341 44.4103 22.1036 45.3238C23.4143 47.5001 26.1751 48.4517 28.6142 48.0746C31.5247 47.6774 34.1748 45.6279 35.1477 42.8338C35.5488 41.8132 35.7102 40.7203 35.6778 39.6269C35.7673 32.9314 35.6914 26.2334 35.8051 19.5389C35.8648 19.1227 35.7574 18.623 36.0084 18.2628C36.8018 17.9261 37.683 17.8337 38.5126 17.604C41.447 16.9045 44.4193 16.357 47.3357 15.5827C47.7722 15.4743 48.221 15.2483 48.3611 14.784C48.6843 14.2977 48.45 13.6763 48.5171 13.1284C48.5039 10.5096 48.5012 7.88959 48.4816 5.27171C48.1852 4.60036 47.5569 4.01537 46.7772 4.08381Z" fill="#505D92"/>
<path d="M4.81157 36.2826C4.59875 36.4195 4.43569 36.8245 4.50801 37.2182C4.55911 37.5002 4.72212 37.7595 4.90392 37.7092C6.69986 37.7387 8.49606 37.7409 10.292 37.7217C10.4518 37.7135 10.6445 37.7523 10.7529 37.5C10.9423 37.1716 10.8788 36.5239 10.6221 36.3511C10.4788 36.2058 10.3 36.314 10.1411 36.2807C8.36462 36.2819 6.5878 36.2782 4.81157 36.2826Z" fill="#151B32"/>
<path d="M11.2965 32.1685C11.0577 32.3053 10.8746 32.7103 10.9558 33.104C11.0132 33.386 11.1961 33.6453 11.4002 33.595C13.416 33.6245 15.432 33.6267 17.4479 33.6075C17.6271 33.5994 17.8434 33.6381 17.9651 33.3858C18.1778 33.0574 18.1065 32.4097 17.8183 32.237C17.6575 32.0917 17.4568 32.1998 17.2784 32.1665C15.2845 32.1678 13.2902 32.164 11.2965 32.1685Z" fill="#263957"/>
<path d="M-1.95513 28.4236C-3.0374 28.5605 -3.86664 28.9655 -3.49889 29.3592C-3.23898 29.6412 -2.41003 29.9005 -1.48549 29.8502C7.64762 29.8797 16.782 29.8819 25.9153 29.8627C26.7275 29.8546 27.7076 29.8933 28.2588 29.641C29.2224 29.3126 28.8993 28.6649 27.5939 28.4921C26.865 28.3468 25.9558 28.455 25.1476 28.4217C16.1136 28.4229 7.0777 28.4192 -1.95513 28.4236Z" fill="#132F75"/>
<path d="M-0.500285 20.7935C-2.11879 20.9303 -3.35887 21.3353 -2.80891 21.729C-2.42023 22.011 -1.18058 22.2703 0.202033 22.22C13.8602 22.2495 27.5203 22.2517 41.1787 22.2326C42.3934 22.2244 43.8589 22.2631 44.6833 22.0108C46.1243 21.6824 45.6411 21.0347 43.689 20.862C42.599 20.7167 41.2393 20.8248 40.0307 20.7916C26.5207 20.7928 13.0079 20.789 -0.500285 20.7935Z" fill="#2C5391"/>
<path d="M-0.858101 16.9423C-2.59492 17.0791 -3.92565 17.4841 -3.33549 17.8778C-2.9184 18.1598 -1.58813 18.4191 -0.104442 18.3688C14.5521 18.3983 29.2108 18.4005 43.8677 18.3813C45.1711 18.3732 46.7438 18.4119 47.6285 18.1596C49.1748 17.8312 48.6563 17.1835 46.5615 17.0108C45.3918 16.8655 43.9327 16.9736 42.6357 16.9403C28.1382 16.9415 13.6376 16.9378 -0.858101 16.9423Z" fill="#262C52"/>
<path d="M-1.12851 24.7098C-2.51363 24.8466 -3.5749 25.2516 -3.10425 25.6453C-2.77161 25.9273 -1.71071 26.1866 -0.527458 26.1363C11.1613 26.1658 22.8517 26.168 34.5407 26.1488C35.5802 26.1407 36.8344 26.1794 37.5399 25.9271C38.7731 25.5987 38.3596 24.951 36.689 24.7783C35.7561 24.633 34.5925 24.7411 33.5581 24.7078C21.9962 24.709 10.4319 24.7053 -1.12851 24.7098Z" fill="#294F7A"/>
<path d="M-0.0486119 13.0439C-1.79954 13.1808 -3.14108 13.5857 -2.54613 13.9794C-2.12564 14.2614 -0.784568 14.5207 0.711171 14.4704C15.4868 14.4999 30.2646 14.5021 45.0406 14.483C46.3546 14.4748 47.9401 14.5135 48.8319 14.2612C50.3908 13.9328 49.8681 13.2852 47.7562 13.1124C46.577 12.9671 45.1061 13.0752 43.7986 13.042C29.1832 13.0432 14.5648 13.0394 -0.0486119 13.0439Z" fill="#424CA0"/>
<path d="M28.14 38.1957C28.14 40.7927 30.4643 42.9056 33.321 42.9056C36.1777 42.9056 38.502 40.7927 38.502 38.1957V23.6322C39.2665 23.9014 40.0603 23.9875 40.7046 24.0574C42.5801 24.2609 43.212 24.3292 43.212 26.4207C43.212 27.2012 43.8444 27.8337 44.625 27.8337C45.4055 27.8337 46.038 27.2012 46.038 26.4207C46.038 21.7932 42.8902 21.4518 41.0094 21.248C39.1339 21.0445 38.502 20.9761 38.502 18.8847C38.502 18.1041 37.8695 17.4717 37.089 17.4717C36.3085 17.4717 35.676 18.1041 35.676 18.8847V34.0024C34.9689 33.6729 34.1688 33.4857 33.321 33.4857C30.4643 33.4857 28.14 35.5986 28.14 38.1957ZM35.676 38.1957C35.676 39.2345 34.6196 40.0797 33.321 40.0797C32.0224 40.0797 30.966 39.2345 30.966 38.1957C30.966 37.1568 32.0224 36.3117 33.321 36.3117C34.6196 36.3117 35.676 37.1568 35.676 38.1957Z" fill="#21294A"/>
<path d="M44.625 28.7757H42.741C41.9605 28.7757 41.328 29.4082 41.328 30.1887C41.328 30.9692 41.9605 31.6017 42.741 31.6017H44.625C45.4055 31.6017 46.038 30.9692 46.038 30.1887C46.038 29.4082 45.4055 28.7757 44.625 28.7757Z" fill="#234F89"/>
<path d="M44.625 34.4277H42.741C41.9605 34.4277 41.328 35.0601 41.328 35.8407C41.328 36.6212 41.9605 37.2537 42.741 37.2537H44.625C45.4055 37.2537 46.038 36.6212 46.038 35.8407C46.038 35.0601 45.4055 34.4277 44.625 34.4277Z" fill="#2B2657"/>
<path d="M16.721 12.2458C13.9486 12.2672 11.1731 12.2278 8.40279 12.3259C7.43168 12.5893 7.05309 13.925 7.72323 14.6701C8.1301 15.2112 8.84371 15.2543 9.46192 15.2187C15.8033 15.2595 22.1458 15.2755 28.4869 15.1948C29.5233 15.1541 30.1424 13.8491 29.6061 12.9868C29.3461 12.4708 28.7631 12.2115 28.2009 12.2927C24.3747 12.2345 20.5475 12.2464 16.721 12.2458Z" fill="#23367D"/>
<path d="M15.6059 20.0119C13.2154 20.0362 10.821 19.9684 8.4329 20.0845C7.41391 20.2955 7.04314 21.7207 7.74275 22.4581C8.19592 23.0495 8.99694 22.8885 9.64144 22.93C15.6896 22.9605 21.7383 22.9673 27.7864 22.9255C28.3499 22.9077 29.0305 22.989 29.4132 22.4715C30.0434 21.8364 29.8977 20.5525 29.0358 20.1902C28.4898 19.8443 27.8074 20.08 27.1967 20.0112C23.3331 20.0114 19.4695 20.0108 15.6059 20.0119Z" fill="#1C346D"/>
<path d="M8.50237 27.7449C7.75333 28.0248 7.17942 28.8531 7.43394 29.6583C7.61382 30.2352 8.18753 30.7656 8.8274 30.6626C15.1484 30.7229 21.4703 30.7275 27.7914 30.6883C28.3535 30.6714 29.0318 30.7508 29.4133 30.2347C30.0802 29.563 29.8566 28.2383 28.9531 27.8849C28.4487 27.5878 27.8194 27.8089 27.2601 27.7409C21.0077 27.7436 14.754 27.7357 8.50237 27.7449Z" fill="#2D66D6"/>
<path d="M15.6588 24.8058C15.655 24.8154 15.6588 25.3768 15.6646 26.0571C15.7106 30.294 15.7221 31.6009 15.7144 31.6085C15.7086 31.6123 15.6799 31.6047 15.6493 31.5874C15.5228 31.5223 15.2871 31.4801 15.0552 31.4801C14.5551 31.482 14.0933 31.6545 13.6583 32.0052C13.2501 32.3329 13.0431 32.6644 13.0221 33.0151C12.9971 33.4654 13.2731 33.8007 13.7809 33.9368C13.9917 33.9923 14.3615 33.9904 14.603 33.9349C15.015 33.841 15.3522 33.6647 15.632 33.3984C15.8026 33.2336 16.0114 32.9653 16.0843 32.8139C16.2011 32.5667 16.2031 32.5361 16.1916 31.4035C16.1839 30.8402 16.1743 29.1213 16.1686 27.5844L16.1571 24.7924H15.9099C15.7757 24.7924 15.6627 24.7981 15.6588 24.8058Z" fill="#2656B0"/>
<path d="M12.1934 26.9884C12.1896 26.998 12.1934 27.5595 12.1991 28.2398C12.2451 32.4766 12.2566 33.7835 12.249 33.7912C12.2432 33.795 12.2145 33.7874 12.1838 33.7701C12.0573 33.7049 11.8216 33.6628 11.5898 33.6628C11.0896 33.6646 10.6278 33.8372 10.1928 34.1878C9.78464 34.5155 9.57769 34.847 9.55661 35.1977C9.53169 35.648 9.80764 35.9834 10.3154 36.1194C10.5262 36.175 10.8961 36.1731 11.1375 36.1176C11.5495 36.0237 11.8868 35.8474 12.1666 35.581C12.3371 35.4162 12.546 35.1479 12.6188 34.9966C12.7357 34.7494 12.7376 34.7187 12.7261 33.5862C12.7185 33.0228 12.7089 31.3039 12.7031 29.7671L12.6916 26.975H12.4444C12.3103 26.975 12.1972 26.9808 12.1934 26.9884Z" fill="#205D90"/>
<path d="M8.65078 29.1009C8.64697 29.1105 8.65078 29.672 8.65653 30.3522C8.70252 34.5891 8.71402 35.896 8.70635 35.9037C8.70059 35.9075 8.67185 35.8998 8.6412 35.8826C8.51473 35.8174 8.27903 35.7753 8.04716 35.7753C7.54702 35.7771 7.0852 35.9496 6.6502 36.3003C6.24204 36.628 6.03508 36.9595 6.014 37.3102C5.98909 37.7605 6.26503 38.0959 6.77284 38.2319C6.98363 38.2875 7.35347 38.2856 7.59492 38.2301C8.00692 38.1362 8.34418 37.9599 8.62396 37.6935C8.7945 37.5287 9.00338 37.2604 9.07619 37.109C9.19309 36.8618 9.195 36.8312 9.18351 35.6987C9.17589 35.1353 9.16626 33.4164 9.16051 31.8796L9.14902 29.0875H8.90182C8.76768 29.0875 8.65461 29.0933 8.65078 29.1009Z" fill="#263957"/>
</g>
<defs>
<clipPath id="clip0_31_44">
<rect width="52" height="52" fill="white"/>
</clipPath>
</defs>
</svg>
